<svg xmlns="http://www.w3.org/2000/svg" viewBox="0 0 512 512">
  <defs>
    <linearGradient id="orangeGrad" x1="0%" y1="0%" x2="100%" y2="100%">
      <stop offset="0%" stop-color="#f97316" />
      <stop offset="100%" stop-color="#f59e0b" />
    </linearGradient>
    <linearGradient id="bgGrad" x1="0%" y1="0%" x2="0%" y2="100%">
      <stop offset="0%" stop-color="#1e3a5f" />
      <stop offset="100%" stop-color="#0f172a" />
    </linearGradient>
  </defs>
  <rect width="512" height="512" rx="112" fill="url(#bgGrad)" />
  <rect x="24" y="24" width="464" height="464" rx="88" fill="none" stroke="#f97316" stroke-width="24" />
  <path d="M 230 140 H 130 L 60 210 L 130 280 H 170 L 120 230 H 230 V 420 H 290 V 230 H 310 V 140 H 230 Z" fill="url(#orangeGrad)" />
  <path d="M 330 140 H 450 V 230 H 410 V 420 H 350 V 230 H 330 V 140 Z" fill="url(#orangeGrad)" />
  <g transform="translate(380, 360)">
    <circle cx="0" cy="0" r="42" fill="#ffffff" />
    <path d="M 0 -18 L -17 -6 L -10 14 L 10 14 L 17 -6 Z" fill="#111827" />
    <path d="M -17 -6 L -33 -18 M -10 14 L -20 32 M 10 14 L 20 32 M 17 -6 L 33 -18 M 0 -18 L 0 -36" stroke="#111827" stroke-width="5" stroke-linecap="round" />
  </g>
</svg>
