<svg xmlns="http://www.w3.org/2000/svg" viewBox="0 0 512 512">
  <defs>
    <linearGradient id="orangeGrad" x1="0%" y1="0%" x2="100%" y2="100%">
      <stop offset="0%" stop-color="#f97316" />
      <stop offset="100%" stop-color="#f59e0b" />
    </linearGradient>
    <linearGradient id="bgGrad" x1="0%" y1="0%" x2="0%" y2="100%">
      <stop offset="0%" stop-color="#1e3a5f" />
      <stop offset="100%" stop-color="#0f172a" />
    </linearGradient>
  </defs>

  <!-- Full bleed background (no rounded corners - OS applies mask) -->
  <rect width="512" height="512" fill="url(#bgGrad)" />

  <!-- Scale logo to fit well within maskable safe zone (inner 80% circle) -->
  <g transform="translate(256, 256) scale(0.44) translate(-256, -256)">
    <!-- Backwards Arrow integrated into Left T -->
    <path d="M 230 140 H 130 L 60 210 L 130 280 H 170 L 120 230 H 230 V 420 H 290 V 230 H 310 V 140 H 230 Z" fill="url(#orangeGrad)" />

    <!-- Right T -->
    <path d="M 330 140 H 450 V 230 H 410 V 420 H 350 V 230 H 330 V 140 Z" fill="url(#orangeGrad)" />

    <!-- Soccer ball (larger for visibility) -->
    <g transform="translate(385, 365)">
      <circle cx="0" cy="0" r="58" fill="#ffffff" />
      <path d="M 0 -24 L -23 -8 L -14 19 L 14 19 L 23 -8 Z" fill="#111827" />
      <path d="M -23 -8 L -44 -24 M -14 19 L -27 43 M 14 19 L 27 43 M 23 -8 L 44 -24 M 0 -24 L 0 -48" stroke="#111827" stroke-width="6" stroke-linecap="round" />
    </g>
  </g>
</svg>
