<svg xmlns="http://www.w3.org/2000/svg" viewBox="0 0 512 512">
  <defs>
    <linearGradient id="orangeGrad" x1="0%" y1="0%" x2="100%" y2="100%">
      <stop offset="0%" stop-color="#f97316" />
      <stop offset="100%" stop-color="#f59e0b" />
    </linearGradient>
    <linearGradient id="bgGrad" x1="0%" y1="0%" x2="0%" y2="100%">
      <stop offset="0%" stop-color="#1e3a5f" />
      <stop offset="100%" stop-color="#0f172a" />
    </linearGradient>
    <pattern id="hex" width="28" height="48.497" patternUnits="userSpaceOnUse" patternTransform="scale(0.6)">
      <path d="M14 0 L28 8.083 L28 24.249 L14 32.332 L0 24.249 L0 8.083 Z" fill="none" stroke="#ffffff" stroke-width="2" stroke-opacity="0.25"/>
      <path d="M14 48.497 L28 40.414 L28 24.249 L14 32.332 L0 24.249 L0 40.414 Z" fill="none" stroke="#ffffff" stroke-width="2" stroke-opacity="0.25"/>
    </pattern>
  </defs>

  <!-- Full bleed background (no rounded corners - OS applies mask) -->
  <rect width="512" height="512" fill="url(#bgGrad)" />

  <!-- Scale logo to fit within 80% safe zone (centered, ~0.6 scale) -->
  <g transform="translate(256, 256) scale(0.6) translate(-256, -256)">
    <!-- Backwards Arrow integrated into Left T -->
    <path d="M 230 140 H 130 L 60 210 L 130 280 H 170 L 120 230 H 230 V 420 H 290 V 230 H 310 V 140 H 230 Z" fill="url(#orangeGrad)" />
    <path d="M 230 140 H 130 L 60 210 L 130 280 H 170 L 120 230 H 230 V 420 H 290 V 230 H 310 V 140 H 230 Z" fill="url(#hex)" />

    <!-- Right T -->
    <path d="M 330 140 H 450 V 230 H 410 V 420 H 350 V 230 H 330 V 140 Z" fill="url(#orangeGrad)" />
    <path d="M 330 140 H 450 V 230 H 410 V 420 H 350 V 230 H 330 V 140 Z" fill="url(#hex)" />

    <!-- Soccer ball -->
    <g transform="translate(380, 360)">
      <circle cx="0" cy="0" r="42" fill="#ffffff" />
      <path d="M 0 -18 L -17 -6 L -10 14 L 10 14 L 17 -6 Z" fill="#111827" />
      <path d="M -17 -6 L -33 -18 M -10 14 L -20 32 M 10 14 L 20 32 M 17 -6 L 33 -18 M 0 -18 L 0 -36" stroke="#111827" stroke-width="5" stroke-linecap="round" />
    </g>
  </g>
</svg>
